<svg width="381" height="381" viewBox="0 0 381 381" fill="none" xmlns="http://www.w3.org/2000/svg">
<path d="M76.2229 95.1356C54.7526 120.807 41.8296 153.873 41.8296 189.957C41.8296 226.59 55.149 260.113 77.2093 285.945M301.964 286.258C324.184 260.383 337.612 226.738 337.612 189.957C337.612 153.524 324.437 120.168 302.593 94.3928" stroke="#30EBD4" stroke-width="3"/>
<path fill-rule="evenodd" clip-rule="evenodd" d="M55.8943 179.47H52.8862C57.7446 111.884 111.427 57.817 178.845 52.3577V55.3679C113.085 60.8133 60.7404 113.541 55.8943 179.47ZM53.3369 204.483H56.3551C63.4092 268.062 114.756 318.279 178.845 323.586V326.596C113.098 321.272 60.4139 269.72 53.3369 204.483ZM326.865 204.483H323.847C316.885 267.232 266.778 316.966 203.858 323.355V326.371C268.437 319.959 319.878 268.891 326.865 204.483ZM327.316 179.47H324.308C319.523 114.38 268.44 62.1562 203.858 55.5984V52.5831C270.099 59.16 322.517 112.722 327.316 179.47Z" fill="#05FBF3"/>
<path d="M217.615 32.5802C181.96 26.3818 143.994 32.1806 110.18 51.7032C75.8511 71.5229 51.6322 102.121 39.3407 136.737M160.453 347.187C196.703 353.977 235.485 348.337 269.952 328.437C304.093 308.726 328.235 278.353 340.589 243.97" stroke="#0DC5FF" stroke-width="3"/>
<path d="M349.972 198.396C351.695 162.248 341.226 125.296 317.655 94.1682C293.726 62.5665 260.356 42.3352 224.482 34.4377M30.7021 180.749C28.4663 217.561 38.8795 255.342 62.9058 287.071C86.7046 318.5 119.84 338.683 155.491 346.671" stroke="#0DC5FF" stroke-dasharray="4 4"/>
</svg>
