<svg width="22" height="24" viewBox="0 0 22 24" fill="none" xmlns="http://www.w3.org/2000/svg">
<path d="M12.0737 6.57567C11.8735 7.4148 11.8379 8.28468 11.9688 9.13734L11 9.56984L10.0311 9.13734C10.162 8.28468 10.1264 7.4148 9.92627 6.57567L11 5.92065L12.0737 6.57567Z" fill="white"/>
<path d="M11.1935 0.125974L12.0527 2.18371L14.2757 2.36518H14.2755C14.36 2.37174 14.4323 2.42873 14.4585 2.50935C14.4847 2.59015 14.4598 2.67864 14.3956 2.73376L12.703 4.19061L13.2172 6.36252H13.2174C13.2369 6.44501 13.2048 6.53106 13.1365 6.58093C13.068 6.63061 12.9762 6.63436 12.9039 6.59011L11.0001 5.42871L9.09631 6.58939C9.02403 6.63345 8.93227 6.62989 8.86374 6.58002C8.79539 6.53034 8.76337 6.44429 8.78285 6.3618L9.29721 4.19066L7.60595 2.7364C7.54154 2.68109 7.51682 2.5926 7.54304 2.51199C7.56925 2.43137 7.64134 2.37438 7.72598 2.36763L9.94905 2.18616L10.8082 0.128426H10.808C10.8406 0.0511853 10.916 0.000566253 10.9999 4.72629e-06C11.0838 -0.000557713 11.1598 0.0491215 11.1935 0.125988L11.1935 0.125974Z" fill="white"/>
<path d="M14.1081 8.64624L12.0487 21.3665H9.9515L7.89209 8.64624L11.0001 10.0279L14.1081 8.64624Z" fill="white"/>
<path d="M21.9681 4.1612L14.7747 21.3665H12.4678L14.5609 8.44081H14.565L14.9161 6.25709C14.9404 6.10542 15.0058 5.9635 15.1052 5.84652C15.2045 5.72953 15.3339 5.64198 15.4794 5.59362L21.448 3.60298C21.6037 3.55124 21.7753 3.59492 21.8871 3.71509C21.999 3.83526 22.0307 4.00961 21.9681 4.16147L21.9681 4.1612Z" fill="white"/>
<path d="M9.53201 21.3663H7.22505L0.0316738 4.16098C-0.0308692 4.00912 0.000777092 3.83477 0.112754 3.7146C0.224542 3.59443 0.396069 3.55075 0.551864 3.60249L6.52142 5.59217H6.52123C6.66654 5.64073 6.79575 5.7279 6.89499 5.8447C6.99423 5.9615 7.05958 6.10323 7.08411 6.25452L7.43896 8.43824L9.53201 21.3663Z" fill="white"/>
<path d="M16.8719 21.7864V23.4662H5.12744V21.7864C5.12744 21.5637 5.21583 21.35 5.37312 21.1925C5.53041 21.035 5.74388 20.9465 5.96633 20.9465H16.033C16.2555 20.9465 16.469 21.035 16.6263 21.1925C16.7835 21.35 16.8719 21.5637 16.8719 21.7864Z" fill="white"/>
</svg>
