<svg width="32" height="18" viewBox="0 0 32 18" fill="none" xmlns="http://www.w3.org/2000/svg">
<path d="M21.9707 3.48528C21.9707 5.41142 23.5357 6.97831 25.4596 6.97831C27.3835 6.97831 28.9407 5.41149 28.9407 3.48528C28.9407 1.56711 27.3834 7.0778e-06 25.4596 7.0778e-06C23.536 -0.00384738 21.9707 1.56711 21.9707 3.48528Z" fill="#FDF1F1"/>
<path d="M28.1602 6.55627C27.4347 7.19171 26.4965 7.59427 25.4598 7.59427C24.423 7.59427 23.4847 7.1956 22.7594 6.55627C21.4072 6.78507 20.2481 7.7088 19.708 8.95598C21.7974 9.65062 23.2403 11.5768 23.2876 13.8069C25.2627 13.1634 27.1552 12.2636 28.941 11.1269L28.9407 9.50885C28.9407 9.33925 29.0787 9.19691 29.2523 9.19691C29.4217 9.19691 29.5559 9.33512 29.5559 9.50885V10.7323C30.1749 10.318 30.7779 9.86781 31.3653 9.40228C30.9237 7.93399 29.67 6.80902 28.1603 6.55627H28.1602Z" fill="#FDF1F1"/>
<path d="M15.7964 1.98962C13.6204 1.98962 11.8423 3.76986 11.8423 5.95643C11.8423 8.13504 13.6204 9.91528 15.7964 9.91528C17.9804 9.91528 19.7585 8.13504 19.7585 5.95643C19.7585 3.76958 17.9804 1.98962 15.7964 1.98962Z" fill="#FDF1F1"/>
<path d="M19.23 9.43749C19.0999 9.39812 18.9699 9.38215 18.8475 9.35461C18.0393 10.0809 16.971 10.5308 15.7962 10.5308C14.6294 10.5308 13.5607 10.0809 12.7528 9.35461C12.6307 9.37829 12.5004 9.39398 12.3863 9.4295C10.3403 9.97023 8.91309 11.8055 8.91309 13.9211V15.9855C9.67782 16.2223 10.4545 16.404 11.2272 16.5579V13.7988C11.2272 13.6292 11.3652 13.4949 11.5387 13.4949C11.7004 13.4949 11.8423 13.6251 11.8423 13.7988V16.6724C14.468 17.1223 17.1368 17.1223 19.7621 16.6724V13.7988C19.7621 13.6292 19.9002 13.4949 20.0657 13.4949C20.2351 13.4949 20.3773 13.6251 20.3773 13.7988V16.5579C21.1539 16.404 21.9266 16.2223 22.6914 15.9855V13.9211C22.687 11.8055 21.2677 9.96643 19.2297 9.43754L19.23 9.43749Z" fill="#FDF1F1"/>
<path d="M2.64893 3.48528C2.64893 5.41142 4.21388 6.97831 6.1378 6.97831C8.06172 6.97831 9.62668 5.41149 9.62668 3.48528C9.62668 1.56711 8.06172 7.0778e-06 6.1378 7.0778e-06C4.21804 -0.00384738 2.64893 1.56711 2.64893 3.48528Z" fill="#FDF1F1"/>
<path d="M11.8898 8.95601C11.3498 7.69699 10.1948 6.77741 8.83849 6.54834C8.11304 7.19177 7.17476 7.5943 6.13808 7.5943C5.10132 7.5943 4.16305 7.19564 3.43766 6.5563C1.89629 6.81676 0.666289 7.91006 0.224609 9.39815C0.819969 9.87968 1.423 10.3218 2.03406 10.7362V9.50852C2.03406 9.33893 2.1721 9.19658 2.34563 9.19658C2.51502 9.19658 2.64922 9.33479 2.64922 9.50852V11.1269C4.451 12.2714 6.34324 13.1675 8.31024 13.8068C8.35754 11.5844 9.80431 9.6583 11.8899 8.95594L11.8898 8.95601Z" fill="#FDF1F1"/>
</svg>
