<svg width="24" height="23" viewBox="0 0 24 23" fill="none" xmlns="http://www.w3.org/2000/svg">
<path d="M20.4001 12.6C20.4001 15.1991 19.3677 17.6916 17.5298 19.5296C15.6919 21.3674 13.199 22.3999 10.6002 22.3999C8.00141 22.3999 5.50861 21.3674 3.67061 19.5296C1.83281 17.6916 0.800293 15.1988 0.800293 12.6C0.800293 10.0012 1.83277 7.5084 3.67061 5.6704C5.50857 3.8326 8.00141 2.80008 10.6002 2.80008C10.7858 2.80008 10.964 2.87383 11.0952 3.00508C11.2265 3.13633 11.3002 3.31446 11.3002 3.50008V11.9001H19.7002C19.8858 11.9001 20.064 11.9738 20.1952 12.1051C20.3265 12.2363 20.4002 12.4145 20.4002 12.6001L20.4001 12.6ZM13.4001 0C13.2145 0 13.0364 0.073752 12.9051 0.205C12.7739 0.336248 12.7001 0.514376 12.7001 0.7V9.8C12.7001 9.98562 12.7739 10.1638 12.9051 10.295C13.0364 10.4262 13.2145 10.5 13.4001 10.5H22.5001C22.6858 10.5 22.8639 10.4262 22.9951 10.295C23.1264 10.1638 23.2001 9.98562 23.2001 9.8C23.2001 8.07968 22.7473 6.38984 21.8872 4.9C21.027 3.41016 19.79 2.17312 18.3001 1.31296C16.8103 0.4528 15.1205 0 13.4001 0Z" fill="white"/>
</svg>
