<svg width="18" height="17" viewBox="0 0 18 17" fill="none" xmlns="http://www.w3.org/2000/svg">
<path d="M17.0052 8.02984V6.23206C17.0052 6.04483 16.7882 5.93247 16.6435 6.04483C14.8711 7.50553 11.6884 8.25457 8.50531 8.25457C5.35854 8.25457 2.1755 7.50553 0.36711 6.04483C0.22239 5.93247 0.00537109 6.04483 0.00537109 6.23206V8.02984V8.1797C0.00537109 10.2771 3.8032 12 8.50537 12C13.2075 12 17.0054 10.2771 17.0054 8.14214V8.02991L17.0052 8.02984Z" fill="url(#paint0_linear_352_2751)"/>
<path d="M17.0052 13.0298V11.2321C17.0052 11.0448 16.7882 10.9325 16.6435 11.0448C14.8711 12.5055 11.6884 13.2546 8.50531 13.2546C5.35854 13.2546 2.1755 12.5055 0.36711 11.0448C0.22239 10.9325 0.00537109 11.0448 0.00537109 11.2321V13.0298V13.1797C0.00537109 15.2771 3.8032 17 8.50537 17C13.2075 17 17.0054 15.2771 17.0054 13.1421V13.0298L17.0052 13.0298Z" fill="url(#paint1_linear_352_2751)"/>
<path d="M17.0054 3.5C17.0054 5.43297 13.1998 7 8.50537 7C3.81095 7 0.00537109 5.43302 0.00537109 3.5C0.00537109 1.56698 3.81095 0 8.50537 0C13.1998 0 17.0054 1.56698 17.0054 3.5Z" fill="url(#paint2_linear_352_2751)"/>
<defs>
<linearGradient id="paint0_linear_352_2751" x1="8.50537" y1="6" x2="8.50537" y2="12" gradientUnits="userSpaceOnUse">
<stop stop-color="#FBE205"/>
<stop offset="1" stop-color="#FE7817"/>
</linearGradient>
<linearGradient id="paint1_linear_352_2751" x1="8.50537" y1="11" x2="8.50537" y2="17" gradientUnits="userSpaceOnUse">
<stop stop-color="#FBE205"/>
<stop offset="1" stop-color="#FE7817"/>
</linearGradient>
<linearGradient id="paint2_linear_352_2751" x1="8.50537" y1="0" x2="8.50537" y2="7" gradientUnits="userSpaceOnUse">
<stop stop-color="#FBE205"/>
<stop offset="1" stop-color="#FE7817"/>
</linearGradient>
</defs>
</svg>
