<svg width="16" height="16" viewBox="0 0 16 16" fill="none" xmlns="http://www.w3.org/2000/svg">
<g opacity="0.5">
<path d="M5.96743 2.75516V13.9183C5.96743 14.429 6.19192 14.8669 6.56595 15.183L6.4163 15.2559C5.81778 15.5235 5.09456 15.2559 4.8202 14.6723L0.106698 4.48183C-0.167671 3.89815 0.106698 3.19287 0.705218 2.94964L7.18931 0.104052C7.78783 -0.163513 8.51104 0.104052 8.76046 0.687731L8.96 1.12545H7.63827C6.71562 1.10124 5.96734 1.85518 5.96734 2.75506L5.96743 2.75516Z" fill="white"/>
<path d="M14.7904 1.92001H7.60938C6.92911 1.92001 6.3999 2.42852 6.3999 3.08243V14.1976C6.3999 14.8514 6.92899 15.36 7.60938 15.36H14.7904C15.4707 15.36 15.9999 14.8515 15.9999 14.1976V3.08243C15.9999 2.45285 15.4456 1.92001 14.7905 1.92001H14.7904ZM8.06308 4.2933L8.79375 3.13088L9.52443 4.2933L8.79375 5.45572L8.06308 4.2933ZM9.52446 8.65227L11.2126 6.01269L12.9008 8.65227L11.2126 11.2918L9.52446 8.65227ZM13.6062 14.1736L12.8755 13.0112L13.6062 11.8488L14.3369 13.0112L13.6062 14.1736Z" fill="white"/>
</g>
</svg>
