<svg width="16" height="16" viewBox="0 0 16 16" fill="none" xmlns="http://www.w3.org/2000/svg">
<path fill-rule="evenodd" clip-rule="evenodd" d="M15.1952 5.80268L14.4826 13.9615L14.4829 13.9616C14.4178 14.7068 13.7609 15.2582 13.0157 15.1931H13.0152L5.00081 14.4903L5.00092 14.49C4.2558 14.4247 3.70468 13.7679 3.76969 13.0228L3.82227 12.4171L10.3738 11.843V11.8423C11.6156 11.7335 12.5342 10.6387 12.4256 9.3969L11.9689 4.16043L13.9638 4.33526V4.33558C14.7088 4.40089 15.26 5.05768 15.1949 5.80284L15.1952 5.80268ZM10.7168 1.23797L11.4215 9.39435C11.4859 10.1391 10.9349 10.7951 10.1903 10.8603L2.17722 11.5625C1.43199 11.6278 0.77486 11.0766 0.709557 10.3314L0.709451 10.3298L0.00460551 2.17342C-0.0596445 1.4287 0.491366 0.77266 1.23595 0.707439L9.24902 0.00525329C9.99425 -0.0600553 10.6513 0.491146 10.7166 1.23638L10.7168 1.23797ZM2.8853 4.19778C3.38159 4.15431 3.74873 3.71612 3.70528 3.21899C3.66191 2.72197 3.22435 2.35428 2.72807 2.39774C2.23178 2.44121 1.86463 2.8794 1.90808 3.37653C1.95145 3.87355 2.38901 4.24134 2.8853 4.19778V4.19778ZM5.79734 6.67425C6.29363 6.63078 6.66078 6.1926 6.61732 5.69547C6.57396 5.19845 6.1364 4.83065 5.64011 4.8741C5.14382 4.91768 4.77676 5.35587 4.82013 5.85289C4.8636 6.35002 5.30105 6.71771 5.79734 6.67425ZM8.70939 9.15073C9.20567 9.10726 9.57274 8.66896 9.52937 8.17194C9.4859 7.67481 9.04844 7.30712 8.55215 7.35057C8.05586 7.39404 7.68872 7.83234 7.73217 8.32936C7.77554 8.82649 8.2131 9.19418 8.70939 9.15073Z" fill="white"/>
</svg>
