<svg width="16" height="16" viewBox="0 0 16 16" fill="none" xmlns="http://www.w3.org/2000/svg">
<path d="M8 0C3.58171 0 0 3.58171 0 8C0 12.4183 3.58171 16 8 16C12.4183 16 16 12.4183 16 8C16 3.58171 12.4183 0 8 0ZM13.2314 4.63886L11.6907 5.52769C11.3677 5.04711 10.9535 4.63283 10.4729 4.30926L11.3618 2.76909C12.1114 3.25157 12.7491 3.88917 13.2314 4.63883V4.63886ZM8.29629 1.79266C9.21357 1.83596 10.0788 2.07413 10.8504 2.47291L9.95914 4.01666C9.45066 3.76532 8.89006 3.61009 8.29631 3.57046L8.29629 1.79266ZM7.70366 1.79266V3.57046C7.11046 3.60952 6.54986 3.76543 6.04137 4.01611L5.1502 2.47237C5.92174 2.07414 6.78637 1.83654 7.70366 1.79269V1.79266ZM4.63766 2.76977L5.52649 4.30994C5.04657 4.63294 4.63229 5.04711 4.3094 5.52769L2.76866 4.63817C3.25103 3.88917 3.88863 3.25157 4.63763 2.76974L4.63766 2.76977ZM2.47237 5.1508L4.01611 6.04266C3.76533 6.55057 3.61009 7.11117 3.57046 7.70426H1.79266C1.83585 6.78697 2.07413 5.92234 2.47234 5.1508H2.47237ZM1.79269 8.2968H3.57049C3.60955 8.89 3.76602 9.4506 4.01669 9.9584L2.47294 10.8497C2.07417 10.0787 1.83657 9.21409 1.79269 8.29677V8.2968ZM2.7698 11.3622L4.30997 10.4734C4.63351 10.954 5.04769 11.3683 5.5284 11.6911L4.63889 13.2313C3.88923 12.7488 3.2516 12.1112 2.7698 11.3622V11.3622ZM7.7038 14.2072C6.78706 14.1639 5.92243 13.9257 5.15089 13.5281L6.04274 11.9843C6.54943 12.235 7.1106 12.3902 7.7038 12.43V14.2072ZM7.7038 10.6663V9.45094C7.12311 9.33364 6.6662 8.87617 6.54889 8.29603H5.33349V7.7034H6.54889C6.66619 7.12326 7.12366 6.6658 7.7038 6.54849V5.33309H8.29643V6.54849C8.87657 6.66579 9.33403 7.12326 9.45134 7.7034H10.6667V8.29603H9.45134C9.33404 8.87617 8.87657 9.33363 8.29643 9.45094V10.6663H7.7038ZM8.29643 14.2072V12.4294C8.88963 12.3903 9.45023 12.2344 9.95803 11.9837L10.8493 13.5275C10.0783 13.9257 9.21371 14.1633 8.2964 14.2072L8.29643 14.2072ZM11.3624 13.2306L10.4729 11.6899C10.9535 11.3669 11.3671 10.9533 11.6907 10.4727L13.2308 11.3615C12.7485 12.1112 12.1109 12.7488 11.3624 13.2306L11.3624 13.2306ZM13.5277 10.8496L11.984 9.95831C12.2346 9.45051 12.3899 8.88989 12.4296 8.29671H14.2074C14.1636 9.214 13.926 10.0786 13.5277 10.8496L13.5277 10.8496ZM12.4296 7.70417C12.3905 7.11097 12.2346 6.55037 11.9839 6.04257L13.5277 5.15071C13.9259 5.92226 14.1642 6.78689 14.2068 7.70417H12.4296Z" fill="white"/>
</svg>
